<?xml version="1.0" standalone="no"?><!DOCTYPE svg PUBLIC "-//W3C//DTD SVG 1.1//EN" "http://www.w3.org/Graphics/SVG/1.1/DTD/svg11.dtd"><svg t="1742192550763" class="icon" viewBox="0 0 1024 1024" version="1.1" xmlns="http://www.w3.org/2000/svg" p-id="9174" xmlns:xlink="http://www.w3.org/1999/xlink" width="200" height="200"><path d="M624.5 399.5C624.5 152 714.5 62.00000001 962 62c0 247.49999999-90 337.5-337.5 337.5z" fill="#98D936" p-id="9175"></path><path d="M961.99999999 512C962 455.75 950.75 405.12500001 933.875 354.5 872 422 770.75 455.75 624.5 455.75l-56.25 0L568.25 399.5C568.25 253.25 602 152 669.5 90.125 618.87499999 73.25 568.25 62 512 62.00000001c-247.49999999 0-449.99999999 202.5-449.99999999 449.99999999s202.5 449.99999999 449.99999999 449.99999999 449.99999999-202.5 449.99999999-449.99999999z" fill="#EE7700" p-id="9176"></path></svg>